#!OML:ASF F:\VICON\USERDATA\Patient Classification 1\PLAYGROUND\JustinFriday\JustinFriday.ASF
:FULLY-SPECIFIED
:DEGREES
1368
root 32.3 26.6925 -9.9531 33.7985 -84.7529 -28.0946
lowerback 11.9679 1.13076 3.50675
upperback 0.607213 2.12597 4.05803
thorax -6.11187 0.953896 1.94111
lowerneck 7.36789 -0.167975 -21.9182
upperneck -3.50222 -1.44587 18.7546
head -1.94159 -1.01711 9.64664
rclavicle -1.19271e-015 -3.18055e-015
rhumerus 70.4376 0.845331 -56.997
rradius 63.3176
rwrist 17.5426
rhand -32.5086 -11.4935
rfingers 7.12502
rthumb -5.73975 -41.3957
lclavicle -1.19271e-015 -3.18055e-015
lhumerus 65.1504 4.165 66.1602
lradius 55.8963
lwrist -17.1405
lhand -41.2926 -29.0266
lfingers 7.12502
lthumb -14.2136 0.467072
rfemur -3.99102 -0.138962 29.1589
rtibia 28.6176
rfoot -30.6932 -9.44322
rtoes 15.5832
lfemur -10.9967 2.16811 -11.1379
ltibia 38.0605
lfoot -30.104 -6.01543
ltoes 0.561971
1369
root 32.2687 26.6949 -9.94424 34.7306 -84.6759 -29.0012
lowerback 12.021 1.13633 3.61942
upperback 0.664925 2.14574 4.04331
thorax -6.0758 0.959879 1.8581
lowerneck 7.52596 0.211814 -21.9849
upperneck -4.13429 -0.903016 18.7681
head -2.26476 -0.743708 9.66361
rclavicle -5.96354e-015 -3.18055e-014
rhumerus 70.0817 0.584806 -56.8836
rradius 64.3987
rwrist 17.5212
rhand -32.2499 -11.3677
rfingers 7.12502
rthumb -5.49001 -41.2766
lclavicle -5.96354e-015 -3.18055e-014
lhumerus 64.9661 4.10058 66.8298
lradius 56.9237
lwrist -16.7374
lhand -40.3562 -29.1289
lfingers 7.12502
lthumb -13.3111 0.425943
rfemur -4.07622 -0.396361 29.2381
rtibia 28.9072
rfoot -30.3671 -9.88651
rtoes 13.7173
lfemur -10.7681 1.88598 -11.0213
ltibia 37.9247
lfoot -29.624 -6.33022
ltoes 2.95649
1370
root 32.2369 26.6995 -9.93437 36.8692 -84.4303 -31.0427
lowerback 11.9836 1.19807 3.93021
upperback 0.708459 2.26251 4.07294
thorax -5.9988 1.00826 1.69583
lowerneck 7.50527 0.48954 -22.2918
upperneck -4.28018 -0.522746 19.0162
head -2.38344 -0.554753 9.79826
rclavicle 5.38706e-014 2.06736e-014
rhumerus 69.6153 0.0566783 -56.4574
rradius 65.4687
rwrist 17.2494
rhand -32.3275 -11.5391
rfingers 7.12502
rthumb -5.56494 -41.446
lclavicle 5.38706e-014 2.06736e-014
lhumerus 64.8167 3.70301 68.3741
lradius 57.4422
lwrist -18.6274
lhand -40.4929 -31.8565
lfingers 7.12502
lthumb -13.4429 -2.31033
rfemur -4.14948 -0.541555 29.5233
rtibia 29.0436
rfoot -30.1493 -9.98133
rtoes 13.1344
lfemur -10.7945 2.44657 -10.7004
ltibia 37.7674
lfoot -29.2955 -6.0262
ltoes 1.41887
1371
root 32.1991 26.7132 -9.92159 33.993 -84.4617 -28.1211
lowerback 12.0088 1.28169 3.69041
upperback 0.75756 2.33756 3.97227
thorax -5.96605 1.05248 1.71079
lowerneck 7.27491 0.707797 -22.6751
upperneck -4.02631 -0.221346 19.3415
head -2.33705 -0.402864 9.96682
rclavicle 9.93923e-016 -1.59028e-015
rhumerus 69.2624 -0.486716 -56.135
rradius 66.3162
rwrist 17.2844
rhand -32.5532 -12.1604
rfingers 7.12502
rthumb -5.78289 -42.0615
lclavicle 9.93923e-016 -1.59028e-015
lhumerus 64.847 3.54364 69.065
lradius 58.2862
lwrist -18.4941
lhand -39.2868 -31.2143
lfingers 7.12502
lthumb -12.2802 -1.59487
rfemur -4.11739 -0.654689 29.1904
rtibia 29.1809
rfoot -30.1809 -9.91036
rtoes 13.4945
lfemur -10.7353 2.54005 -11.0083
ltibia 37.6306
lfoot -28.9439 -6.67754
ltoes 2.70624
1372
root 32.1584 26.7277 -9.91247 30.7426 -84.6791 -24.8499
lowerback 12.0869 1.33548 3.22821
upperback 0.80341 2.34757 3.87592
thorax -5.97549 1.07065 1.86544
lowerneck 7.05158 1.01317 -23.0022
upperneck -3.90889 0.213471 19.5455
head -2.3629 -0.17931 10.0803
rclavicle 1.17283e-014 2.22639e-014
rhumerus 69.1475 -0.758212 -56.2465
rradius 67.0834
rwrist 17.482
rhand -32.0611 -12.807
rfingers 7.12502
rthumb -5.3077 -42.7205
lclavicle 1.17283e-014 2.22639e-014
lhumerus 65.0816 3.53414 70.4392
lradius 58.2756
lwrist -19.5988
lhand -38.8668 -30.5137
lfingers 7.12502
lthumb -11.8752 -0.87041
rfemur -4.06168 -0.408239 28.7804
rtibia 29.3563
rfoot -30.1212 -10.2003
rtoes 12.6245
lfemur -10.5471 2.52052 -11.4419
ltibia 37.4698
lfoot -28.6868 -7.23351
ltoes 4.64257
1373
root 32.1195 26.7327 -9.90627 31.9427 -84.709 -25.9328
lowerback 12.0294 1.3683 3.14319
upperback 0.831866 2.37647 3.92342
thorax -5.91907 1.08789 1.95972
lowerneck 6.74141 1.33901 -23.2417
upperneck -3.76504 0.697946 19.6355
head -2.37912 0.075065 10.1333
rclavicle 2.98177e-014 0
rhumerus 69.0611 -0.972306 -56.4063
rradius 67.9492
rwrist 17.5447
rhand -31.3011 -13.2169
rfingers 7.12502
rthumb -4.57389 -43.1476
lclavicle 2.98177e-014 0
lhumerus 64.4107 3.77803 68.8865
lradius 59.8041
lwrist -17.8637
lhand -38.5327 -31.2481
lfingers 7.12502
lthumb -11.553 -1.58654
rfemur -4.12484 0.0851157 28.9072
rtibia 29.5442
rfoot -30.0295 -10.2942
rtoes 12.1058
lfemur -10.4411 2.82997 -11.3488
ltibia 37.2896
lfoot -28.5028 -7.31486
ltoes 5.29576
1374
root 32.0856 26.7258 -9.89433 35.7658 -84.3629 -29.6113
lowerback 11.9692 1.38119 3.5801
upperback 0.815178 2.45087 4.04139
thorax -5.89128 1.11203 1.82768
lowerneck 6.70416 1.62391 -23.3161
upperneck -3.89541 1.10631 19.6662
head -2.50317 0.282247 10.1435
rclavicle 1.13307e-014 -2.8625e-014
rhumerus 68.7756 -1.41011 -56.4165
rradius 68.8813
rwrist 17.5243
rhand -30.8165 -13.5619
rfingers 7.12502
rthumb -4.10592 -43.502
lclavicle 1.13307e-014 -2.8625e-014
lhumerus 64.7322 3.61462 70.065
lradius 60.1873
lwrist -18.1072
lhand -37.5026 -31.6311
lfingers 7.12502
lthumb -10.5595 -1.9164
rfemur -4.27388 0.0903377 29.3942
rtibia 29.737
rfoot -30.0846 -9.69939
rtoes 13.0388
lfemur -10.4278 3.12683 -10.8118
ltibia 37.1198
lfoot -28.3276 -7.1529
ltoes 4.78926
1375
root 32.0528 26.7202 -9.87757 38.3526 -84.0906 -32.0582
lowerback 11.98 1.42311 3.91504
upperback 0.768342 2.55639 4.13232
thorax -5.9377 1.15335 1.71795
lowerneck 6.89668 1.91477 -23.2934
upperneck -4.33596 1.50732 19.6046
head -2.75241 0.481183 10.1078
rclavicle 2.38542e-015 9.54166e-015
rhumerus 68.4269 -1.86237 -56.2215
rradius 69.6362
rwrist 17.5197
rhand -30.7143 -13.8371
rfingers 7.12502
rthumb -4.00722 -43.7791
lclavicle 2.38542e-015 9.54166e-015
lhumerus 64.1892 3.68303 67.3358
lradius 61.7601
lwrist -15.3833
lhand -37.5172 -28.8697
lfingers 7.12502
lthumb -10.5736 0.844292
rfemur -4.42424 -0.175499 29.6868
rtibia 29.8929
rfoot -30.067 -9.10256
rtoes 13.5138
lfemur -10.4206 3.04383 -10.4857
ltibia 37.0081
lfoot -28.3515 -6.73011
ltoes 4.20232
1376
root 32.0181 26.7199 -9.86491 36.7762 -84.3014 -30.3902
lowerback 11.9297 1.47133 3.58724
upperback 0.8523 2.56676 4.06395
thorax -5.83158 1.1692 1.82907
lowerneck 6.9051 2.23561 -23.3994
upperneck -4.73877 1.97795 19.6095
head -2.9773 0.72269 10.1128
rclavicle -2.88238e-014 -3.18055e-014
rhumerus 68.3324 -2.18569 -56.0923
rradius 70.2902
rwrist 17.6331
rhand -30.6077 -13.95
rfingers 7.12502
rthumb -3.90429 -43.8939
lclavicle -2.88238e-014 -3.18055e-014
lhumerus 65.9038 3.42957 70.8963
lradius 59.8916
lwrist -18.3007
lhand -37.2037 -30.7315
lfingers 7.12502
lthumb -10.2711 -1.00229
rfemur -4.40255 0.120058 29.3806
rtibia 29.9668
rfoot -30.0073 -9.11478
rtoes 13.5244
lfemur -10.2936 2.56455 -10.9259
ltibia 36.954
lfoot -28.6124 -5.91692
ltoes 4.30047
1377
root 31.9894 26.7121 -9.85661 35.6257 -84.5516 -29.2467
lowerback 12.0149 1.53759 3.29304
upperback 0.976101 2.60891 3.95815
thorax -5.75626 1.19801 1.87414
lowerneck 6.3424 2.45411 -23.1575
upperneck -4.14047 2.3615 19.5278
head -2.79236 0.927922 10.009
rclavicle -9.34288e-015 2.22639e-014
rhumerus 68.2366 -2.62217 -56.1022
rradius 71.1036
rwrist 17.6718
rhand -30.2153 -14.0128
rfingers 7.12502
rthumb -3.5254 -43.9634
lclavicle -9.34288e-015 2.22639e-014
lhumerus 66.252 3.57856 69.8176
lradius 60.3656
lwrist -17.3961
lhand -37.1654 -28.7272
lfingers 7.12502
lthumb -10.2343 1.00384
rfemur -4.25833 0.762474 29.1941
rtibia 30.0133
rfoot -30.0764 -9.51035
rtoes 14.2998
lfemur -10.0715 2.06142 -11.3183
ltibia 36.9335
lfoot -28.8668 -5.13087
ltoes 4.10125
1378
root 31.9616 26.701 -9.84698 36.3849 -84.5082 -30.0111
lowerback 12.1525 1.57261 3.35203
upperback 1.04231 2.66386 3.9237
thorax -5.75917 1.22226 1.79277
lowerneck 1.21377 6.44985 -14.3393
upperneck -0.333974 8.49898 9.61734
head -1.32319 4.21921 5.00057
rclavicle 5.56597e-015 -1.43125e-014
rhumerus 68.0507 -3.15049 -55.8187
rradius 71.7451
rwrist 17.3885
rhand -30.218 -14.2311
rfingers 7.12502
rthumb -3.528 -44.1816
lclavicle 5.56597e-015 -1.43125e-014
lhumerus 66.1189 3.74337 68.2917
lradius 61.3342
lwrist -16.234
lhand -37.0584 -26.5385
lfingers 7.12502
lthumb -10.131 3.19755
rfemur -4.16931 1.05197 29.3545
rtibia 30.0847
rfoot -30.2731 -9.8481
rtoes 15.6084
lfemur -9.88457 1.48235 -11.3275
ltibia 36.8711
lfoot -28.9964 -4.70005
ltoes 3.86286
